<svg xmlns="http://www.w3.org/2000/svg" width="889.911" height="821.944" viewBox="0 0 889.911 821.944">
  <g id="Logo" transform="translate(-382 -87.902)">
    <g id="Polygon_2" data-name="Polygon 2" transform="translate(1271.911 640.503) rotate(158)" fill="#000000">
      <path d="M 183.8400573730469 535.4835815429688 C 167.1602172851563 535.4835815429688 152.1483001708984 524.9700927734375 145.5955200195313 508.6993408203125 C 139.0455932617188 492.4358825683594 142.7854461669922 475.371337890625 155.5995178222656 463.0517272949219 L 260.1910705566406 362.4967346191406 C 268.6352233886719 354.3783569335938 274.7812194824219 344.1289672851563 277.9647521972656 332.8565673828125 L 319.0809020996094 187.2701873779297 C 325.4564514160156 164.6953430175781 344.8389892578125 156.6852722167969 359.4999084472656 156.6852722167969 C 374.1607666015625 156.6852722167969 393.5433654785156 164.6953430175781 399.9188232421875 187.270263671875 L 441.0349731445313 332.8565063476563 C 444.2185363769531 344.1290283203125 450.3645935058594 354.3785095214844 458.80859375 362.4967346191406 L 563.4002075195313 463.0516662597656 C 576.2113037109375 475.3683471679688 579.9507446289063 492.4298095703125 573.4031982421875 508.6911010742188 C 566.8508911132813 524.9642944335938 551.8387451171875 535.4808959960938 535.1580810546875 535.4833984375 C 535.1560668945313 535.4833984375 535.1539916992188 535.4833984375 535.1520385742188 535.4833984375 C 531.4983520507813 535.4833984375 527.7276000976563 534.9957885742188 523.9442749023438 534.0341186523438 L 375.7604370117188 496.3650512695313 C 370.4501342773438 495.0150451660156 364.9792785644531 494.33056640625 359.5000610351563 494.33056640625 C 354.020751953125 494.33056640625 348.5498962402344 495.0150451660156 343.2395324707031 496.3650512695313 L 195.0555267333984 534.0342407226563 C 191.2723693847656 534.9959716796875 187.4989013671875 535.4835815429688 183.8400573730469 535.4835815429688 Z" stroke="none"/>
      <path d="M 359.4998168945313 168.6852416992188 C 348.5255432128906 168.6852416992188 335.1781005859375 174.42431640625 330.6290893554688 190.5315856933594 L 289.5130004882813 336.1181335449219 C 285.7505493164063 349.4401245117188 278.4870910644531 361.5529479980469 268.5078125 371.147216796875 L 163.916259765625 471.7022094726563 C 150.7186279296875 484.3905944824219 154.4918212890625 498.667236328125 156.7266235351563 504.2164306640625 C 160.30615234375 513.1044311523438 169.554931640625 523.4835205078125 183.8400268554688 523.4835205078125 C 186.5028076171875 523.4835205078125 189.2815551757813 523.1203002929688 192.0990600585938 522.4041748046875 L 340.2828979492188 484.7349548339844 C 346.5587158203125 483.1394958496094 353.0243530273438 482.3305969238281 359.5 482.3305969238281 C 365.9756469726563 482.3305969238281 372.4412841796875 483.1394958496094 378.7168273925781 484.7349548339844 L 526.9007568359375 522.4039306640625 C 529.7184448242188 523.1202392578125 532.4972534179688 523.4833984375 535.1597900390625 523.4833984375 C 549.4424438476563 523.4833984375 558.690673828125 513.103515625 562.2704467773438 504.2146606445313 C 564.50537109375 498.6653137207031 568.2789916992188 484.3884887695313 555.0834350585938 471.7023315429688 L 450.4918212890625 371.1473083496094 C 440.5126342773438 361.5530395507813 433.2491760253906 349.4401245117188 429.4867248535156 336.1179504394531 L 388.3706359863281 190.5315856933594 C 383.8216247558594 174.42431640625 370.4741821289063 168.6852416992188 359.4998168945313 168.6852416992188 M 359.4998474121094 144.6852416992188 C 381.7843322753906 144.6852416992188 404.0625 157.7899169921875 411.4671936035156 184.0087585449219 L 452.5832824707031 329.5950317382813 C 455.1905517578125 338.8269653320313 460.2099914550781 347.1976928710938 467.1253662109375 353.8462219238281 L 571.7169189453125 454.401123046875 C 608.0545043945313 489.3363037109375 580.7925415039063 547.4833984375 535.1598510742188 547.4833984375 C 530.6014404296875 547.4833984375 525.867919921875 546.9046630859375 520.98779296875 545.6641235351563 L 372.8039855957031 507.9951171875 C 368.438720703125 506.8854370117188 363.9693603515625 506.3306274414063 359.5 506.3306274414063 C 355.0306396484375 506.3306274414063 350.561279296875 506.8854370117188 346.1960144042969 507.9951171875 L 198.0120239257813 545.664306640625 C 193.1351928710938 546.904052734375 188.3955688476563 547.4835205078125 183.8400268554688 547.4835205078125 C 138.2017822265625 547.4835205078125 110.94287109375 489.3387145996094 147.2828369140625 454.401123046875 L 251.8743591308594 353.8461303710938 C 258.7897338867188 347.1976013183594 263.8091735839844 338.8269653320313 266.4164428710938 329.5951232910156 L 307.5325317382813 184.0086975097656 C 314.9354248046875 157.7962646484375 337.2207946777344 144.6852416992188 359.4998474121094 144.6852416992188 Z" stroke="none"/>
    </g>
    <circle id="Ellipse_1" data-name="Ellipse 1" cx="34.5" cy="34.5" r="34.5" transform="translate(960 430)"/>
  </g>
</svg>
